<?xml version="1.0" encoding="utf-8"?>
<svg version="1.1" xmlns:xlink="http://www.w3.org/1999/xlink" width="1100px" height="782px" xmlns="http://www.w3.org/2000/svg">
  <g transform="matrix(1 0 0 1 -30 -24 )">
    <path d="M 31 28  A 3 3 0 0 1 34 25 L 1126 25  A 3 3 0 0 1 1129 28 L 1129 802  A 3 3 0 0 1 1126 805 L 34 805  A 3 3 0 0 1 31 802 L 31 28  Z " fill-rule="nonzero" fill="#ff3399" stroke="none" fill-opacity="0.0980392156862745" />
    <path d="M 30.5 28  A 3.5 3.5 0 0 1 34 24.5 L 1126 24.5  A 3.5 3.5 0 0 1 1129.5 28 L 1129.5 802  A 3.5 3.5 0 0 1 1126 805.5 L 34 805.5  A 3.5 3.5 0 0 1 30.5 802 L 30.5 28  Z " stroke-width="1" stroke-dasharray="9,4" stroke="#ff3399" fill="none" stroke-dashoffset="0.5" />
  </g>
</svg>