<?xml version="1.0" encoding="utf-8"?>
<svg version="1.1" xmlns:xlink="http://www.w3.org/1999/xlink" width="24px" height="24px" xmlns="http://www.w3.org/2000/svg">
  <g transform="matrix(1 0 0 1 -21 -785 )">
    <path d="M 30.6691034045252 793.791796067501  L 33 786.61803398875  L 35.3308965954748 793.791796067501  L 42.8738364269542 793.791796067501  L 36.7714699157397 798.225424859374  L 39.1023665112145 805.399186938124  L 33 800.965558146251  L 26.8976334887855 805.399186938124  L 29.2285300842603 798.225424859374  L 23.1261635730458 793.791796067501  L 30.6691034045252 793.791796067501  Z " fill-rule="nonzero" fill="#ffb300" stroke="none" />
    <path d="M 30.3058321405225 793.291796067501  L 33 785  L 35.6941678594775 793.291796067501  L 44.4126781955418 793.291796067501  L 37.3592551680322 798.416407864999  L 40.0534230275097 806.708203932499  L 33 801.583592135001  L 25.9465769724903 806.708203932499  L 28.6407448319678 798.416407864999  L 21.5873218044582 793.291796067501  L 30.3058321405225 793.291796067501  Z M 33 788.2360679775  L 31.0323746685278 794.291796067501  L 24.6650053416334 794.291796067501  L 29.8163153365528 798.034441853749  L 27.8486900050806 804.09016994375  L 33 800.347524157501  L 38.1513099949194 804.09016994375  L 36.1836846634472 798.034441853749  L 41.3349946583666 794.291796067501  L 34.9676253314721 794.291796067501  L 33 788.2360679775  Z " fill-rule="nonzero" fill="#c9c9c9" stroke="none" />
  </g>
</svg>