<?xml version="1.0" encoding="utf-8"?>
<svg version="1.1" xmlns:xlink="http://www.w3.org/1999/xlink" width="24px" height="24px" xmlns="http://www.w3.org/2000/svg">
  <g transform="matrix(1 0 0 1 -183 -785 )">
    <path d="M 192.669103404525 793.791796067501  L 195 786.61803398875  L 197.330896595475 793.791796067501  L 204.873836426954 793.791796067501  L 198.77146991574 798.225424859374  L 201.102366511215 805.399186938124  L 195 800.965558146251  L 188.897633488785 805.399186938124  L 191.22853008426 798.225424859374  L 185.126163573046 793.791796067501  L 192.669103404525 793.791796067501  Z " fill-rule="nonzero" fill="#ffffff" stroke="none" />
    <path d="M 192.305832140522 793.291796067501  L 195 785  L 197.694167859478 793.291796067501  L 206.412678195542 793.291796067501  L 199.359255168032 798.416407864999  L 202.05342302751 806.708203932499  L 195 801.583592135001  L 187.94657697249 806.708203932499  L 190.640744831968 798.416407864999  L 183.587321804458 793.291796067501  L 192.305832140522 793.291796067501  Z M 195 788.2360679775  L 193.032374668528 794.291796067501  L 186.665005341633 794.291796067501  L 191.816315336553 798.034441853749  L 189.848690005081 804.09016994375  L 195 800.347524157501  L 200.151309994919 804.09016994375  L 198.183684663447 798.034441853749  L 203.334994658367 794.291796067501  L 196.967625331472 794.291796067501  L 195 788.2360679775  Z " fill-rule="nonzero" fill="#c9c9c9" stroke="none" />
  </g>
</svg>