<?xml version="1.0" encoding="utf-8"?>
<svg version="1.1" xmlns:xlink="http://www.w3.org/1999/xlink" width="1252px" height="62px" xmlns="http://www.w3.org/2000/svg">
  <defs>
    <mask fill="white" id="clip59">
      <path d="M 4.67164179104478 9  C 5.74222636815929 10.6944444444445  0 9.99086100067683  0 12.2  L 0 58  C 0 60.2091389993232  2.09156527317853 62  4.67164179104478 62  L 1247.32835820896 62  C 1249.90843472682 62  1252 60.2091389993232  1252 58  L 1252 12.2  C 1252 9.99086100067683  1249.90843472682 8.19999999999999  1247.32835820896 9  L 663.373134328357 9  L 647.054830016583 0  L 627.58965588723 9  L 4.67164179104478 9  Z " fill-rule="evenodd" />
    </mask>
  </defs>
  <g transform="matrix(1 0 0 1 0 -152 )">
    <path d="M 4.67164179104478 9  C 5.74222636815929 10.6944444444445  0 9.99086100067683  0 12.2  L 0 58  C 0 60.2091389993232  2.09156527317853 62  4.67164179104478 62  L 1247.32835820896 62  C 1249.90843472682 62  1252 60.2091389993232  1252 58  L 1252 12.2  C 1252 9.99086100067683  1249.90843472682 8.19999999999999  1247.32835820896 9  L 663.373134328357 9  L 647.054830016583 0  L 627.58965588723 9  L 4.67164179104478 9  Z " fill-rule="nonzero" fill="#f9f9f9" stroke="none" transform="matrix(1 0 0 1 0 152 )" />
    <path d="M 4.67164179104478 9  C 5.74222636815929 10.6944444444445  0 9.99086100067683  0 12.2  L 0 58  C 0 60.2091389993232  2.09156527317853 62  4.67164179104478 62  L 1247.32835820896 62  C 1249.90843472682 62  1252 60.2091389993232  1252 58  L 1252 12.2  C 1252 9.99086100067683  1249.90843472682 8.19999999999999  1247.32835820896 9  L 663.373134328357 9  L 647.054830016583 0  L 627.58965588723 9  L 4.67164179104478 9  Z " stroke-width="2" stroke="#e8e8e8" fill="none" transform="matrix(1 0 0 1 0 152 )" mask="url(#clip59)" />
  </g>
</svg>