<?xml version="1.0" encoding="utf-8"?>
<svg version="1.1" xmlns:xlink="http://www.w3.org/1999/xlink" width="439px" height="32px" xmlns="http://www.w3.org/2000/svg">
  <g transform="matrix(1 0 0 1 -515 -1072 )">
    <path d="M 516 1076  A 3 3 0 0 1 519 1073 L 950 1073  A 3 3 0 0 1 953 1076 L 953 1100  A 3 3 0 0 1 950 1103 L 519 1103  A 3 3 0 0 1 516 1100 L 516 1076  Z " fill-rule="nonzero" fill="#ffffff" stroke="none" />
    <path d="M 515.5 1076  A 3.5 3.5 0 0 1 519 1072.5 L 950 1072.5  A 3.5 3.5 0 0 1 953.5 1076 L 953.5 1100  A 3.5 3.5 0 0 1 950 1103.5 L 519 1103.5  A 3.5 3.5 0 0 1 515.5 1100 L 515.5 1076  Z " stroke-width="1" stroke-dasharray="9,4" stroke="#d9d9d9" fill="none" stroke-dashoffset="0.5" />
  </g>
</svg>