<?xml version="1.0" encoding="utf-8"?>
<svg version="1.1" xmlns:xlink="http://www.w3.org/1999/xlink" width="264px" height="100px" xmlns="http://www.w3.org/2000/svg">
  <g transform="matrix(1 0 0 1 -146 -1246 )">
    <path d="M 147 1250  A 3 3 0 0 1 150 1247 L 406 1247  A 3 3 0 0 1 409 1250 L 409 1342  A 3 3 0 0 1 406 1345 L 150 1345  A 3 3 0 0 1 147 1342 L 147 1250  Z " fill-rule="nonzero" fill="#ff3399" stroke="none" fill-opacity="0.0980392156862745" />
    <path d="M 146.5 1250  A 3.5 3.5 0 0 1 150 1246.5 L 406 1246.5  A 3.5 3.5 0 0 1 409.5 1250 L 409.5 1342  A 3.5 3.5 0 0 1 406 1345.5 L 150 1345.5  A 3.5 3.5 0 0 1 146.5 1342 L 146.5 1250  Z " stroke-width="1" stroke-dasharray="9,4" stroke="#ff3399" fill="none" stroke-dashoffset="0.5" />
  </g>
</svg>