<?xml version="1.0" encoding="utf-8"?>
<svg version="1.1" xmlns:xlink="http://www.w3.org/1999/xlink" width="369px" height="61px" xmlns="http://www.w3.org/2000/svg">
  <g transform="matrix(1 0 0 1 -837 -242 )">
    <path d="M 838 246  A 3 3 0 0 1 841 243 L 1202 243  A 3 3 0 0 1 1205 246 L 1205 299  A 3 3 0 0 1 1202 302 L 841 302  A 3 3 0 0 1 838 299 L 838 246  Z " fill-rule="nonzero" fill="#ff3399" stroke="none" fill-opacity="0.0980392156862745" />
    <path d="M 837.5 246  A 3.5 3.5 0 0 1 841 242.5 L 1202 242.5  A 3.5 3.5 0 0 1 1205.5 246 L 1205.5 299  A 3.5 3.5 0 0 1 1202 302.5 L 841 302.5  A 3.5 3.5 0 0 1 837.5 299 L 837.5 246  Z " stroke-width="1" stroke-dasharray="9,4" stroke="#ff3399" fill="none" stroke-dashoffset="0.5" />
  </g>
</svg>