<?xml version="1.0" encoding="utf-8"?>
<svg version="1.1" xmlns:xlink="http://www.w3.org/1999/xlink" width="1165px" height="216px" xmlns="http://www.w3.org/2000/svg">
  <g transform="matrix(1 0 0 1 -1451 -87 )">
    <path d="M 1452 91  A 3 3 0 0 1 1455 88 L 2612 88  A 3 3 0 0 1 2615 91 L 2615 299  A 3 3 0 0 1 2612 302 L 1455 302  A 3 3 0 0 1 1452 299 L 1452 91  Z " fill-rule="nonzero" fill="#ff3399" stroke="none" fill-opacity="0.0980392156862745" />
    <path d="M 1451.5 91  A 3.5 3.5 0 0 1 1455 87.5 L 2612 87.5  A 3.5 3.5 0 0 1 2615.5 91 L 2615.5 299  A 3.5 3.5 0 0 1 2612 302.5 L 1455 302.5  A 3.5 3.5 0 0 1 1451.5 299 L 1451.5 91  Z " stroke-width="1" stroke-dasharray="9,4" stroke="#ff3399" fill="none" stroke-dashoffset="0.5" />
  </g>
</svg>