<?xml version="1.0" encoding="utf-8"?>
<svg version="1.1" xmlns:xlink="http://www.w3.org/1999/xlink" width="440px" height="35px" xmlns="http://www.w3.org/2000/svg">
  <defs>
    <mask fill="white" id="clip57">
      <path d="M 0 31  L 0 4  C 0 1.75999999999999  1.75600907029478 0  3.99092970521542 0  L 436.009070294785 0  C 438.243990929705 0  440 1.75999999999999  440 4  L 440 31  C 440 33.24  438.243990929705 35  436.009070294785 35  L 88.1439351696963 35  L 3.99092970521542 35  C 1.75600907029478 35  0 33.24  0 31  Z " fill-rule="evenodd" />
    </mask>
  </defs>
  <g transform="matrix(1 0 0 1 -653 -494 )">
    <path d="M 0 31  L 0 4  C 0 1.75999999999999  1.75600907029478 0  3.99092970521542 0  L 436.009070294785 0  C 438.243990929705 0  440 1.75999999999999  440 4  L 440 31  C 440 33.24  438.243990929705 35  436.009070294785 35  L 88.1439351696963 35  L 3.99092970521542 35  C 1.75600907029478 35  0 33.24  0 31  Z " fill-rule="nonzero" fill="#ffffff" stroke="none" transform="matrix(1 0 0 1 653 494 )" />
    <path d="M 0 31  L 0 4  C 0 1.75999999999999  1.75600907029478 0  3.99092970521542 0  L 436.009070294785 0  C 438.243990929705 0  440 1.75999999999999  440 4  L 440 31  C 440 33.24  438.243990929705 35  436.009070294785 35  L 88.1439351696963 35  L 3.99092970521542 35  C 1.75600907029478 35  0 33.24  0 31  Z " stroke-width="2" stroke="#d9d9d9" fill="none" transform="matrix(1 0 0 1 653 494 )" mask="url(#clip57)" />
  </g>
</svg>