<?xml version="1.0" encoding="utf-8"?>
<svg version="1.1" xmlns:xlink="http://www.w3.org/1999/xlink" width="939px" height="62px" xmlns="http://www.w3.org/2000/svg">
  <defs>
    <mask fill="white" id="clip66">
      <path d="M 3.50373134328357 9  C 4.30666977611946 10.6944444444445  0 9.99086100067689  0 12.2  L 0 58  C 0 60.2091389993232  1.5686739548839 62  3.50373134328357 62  L 935.496268656717 62  C 937.431326045116 62  939 60.2091389993232  939 58  L 939 12.2  C 939 9.99086100067689  937.431326045116 8.20000000000005  935.496268656717 9  L 367.522179555085 9  L 355.347424523305 0  L 341.100370762712 9  L 3.50373134328357 9  Z " fill-rule="evenodd" />
    </mask>
  </defs>
  <g transform="matrix(1 0 0 1 -374 -634 )">
    <path d="M 3.50373134328357 9  C 4.30666977611946 10.6944444444445  0 9.99086100067689  0 12.2  L 0 58  C 0 60.2091389993232  1.5686739548839 62  3.50373134328357 62  L 935.496268656717 62  C 937.431326045116 62  939 60.2091389993232  939 58  L 939 12.2  C 939 9.99086100067689  937.431326045116 8.20000000000005  935.496268656717 9  L 367.522179555085 9  L 355.347424523305 0  L 341.100370762712 9  L 3.50373134328357 9  Z " fill-rule="nonzero" fill="#f9f9f9" stroke="none" transform="matrix(1 0 0 1 374 634 )" />
    <path d="M 3.50373134328357 9  C 4.30666977611946 10.6944444444445  0 9.99086100067689  0 12.2  L 0 58  C 0 60.2091389993232  1.5686739548839 62  3.50373134328357 62  L 935.496268656717 62  C 937.431326045116 62  939 60.2091389993232  939 58  L 939 12.2  C 939 9.99086100067689  937.431326045116 8.20000000000005  935.496268656717 9  L 367.522179555085 9  L 355.347424523305 0  L 341.100370762712 9  L 3.50373134328357 9  Z " stroke-width="2" stroke="#e8e8e8" fill="none" transform="matrix(1 0 0 1 374 634 )" mask="url(#clip66)" />
  </g>
</svg>