<?xml version="1.0" encoding="utf-8"?>
<svg version="1.1" xmlns:xlink="http://www.w3.org/1999/xlink" width="1707px" height="458px" xmlns="http://www.w3.org/2000/svg">
  <g transform="matrix(1 0 0 1 -1475 -270 )">
    <path d="M 1476 274  A 3 3 0 0 1 1479 271 L 3178 271  A 3 3 0 0 1 3181 274 L 3181 724  A 3 3 0 0 1 3178 727 L 1479 727  A 3 3 0 0 1 1476 724 L 1476 274  Z " fill-rule="nonzero" fill="#ff3399" stroke="none" fill-opacity="0.0980392156862745" />
    <path d="M 1475.5 274  A 3.5 3.5 0 0 1 1479 270.5 L 3178 270.5  A 3.5 3.5 0 0 1 3181.5 274 L 3181.5 724  A 3.5 3.5 0 0 1 3178 727.5 L 1479 727.5  A 3.5 3.5 0 0 1 1475.5 724 L 1475.5 274  Z " stroke-width="1" stroke-dasharray="9,4" stroke="#ff3399" fill="none" stroke-dashoffset="0.5" />
  </g>
</svg>