<?xml version="1.0" encoding="utf-8"?>
<svg version="1.1" xmlns:xlink="http://www.w3.org/1999/xlink" width="81px" height="36px" xmlns="http://www.w3.org/2000/svg">
  <g transform="matrix(1 0 0 1 -1050 -598 )">
    <path d="M 79.5 28.75  L 79.5 6.25  C 79.2727272727273 2.40000000000002  77.5305050505051 0.625  73.0505050505051 0.625  L 0 0.625  L 0 34.5  L 73.0505050505051 34.5  C 77.5305050505051 34.375  79.2727272727273 32.6  79.5 28.75  Z " fill-rule="nonzero" fill="#ebebeb" stroke="none" transform="matrix(1 0 0 1 1050 598 )" />
    <path d="M 0 34.5  L 73.0505050505051 34.5  C 77.5305050505051 34.375  79.2727272727273 32.6  79.5 28.75  L 79.5 6.25  C 79.2727272727273 2.40000000000002  77.5305050505051 0.625  73.0505050505051 0.625  L 0 0.625  " stroke-width="1" stroke="#d9d9d9" fill="none" transform="matrix(1 0 0 1 1050 598 )" />
  </g>
</svg>