<?xml version="1.0" encoding="utf-8"?>
<svg version="1.1" xmlns:xlink="http://www.w3.org/1999/xlink" width="240px" height="35px" xmlns="http://www.w3.org/2000/svg">
  <defs>
    <mask fill="white" id="clip58">
      <path d="M 0 31  L 0 4  C 0 1.75999999999999  0.959999999999995 0  2.18181818181818 0  L 26.0559440559441 0  L 237.818181818182 0  C 239.04 0  240 1.75999999999999  240 4  L 240 31  C 240 33.24  239.04 35  237.818181818182 35  L 2.18181818181818 35  C 0.959999999999995 35  0 33.24  0 31  Z " fill-rule="evenodd" />
    </mask>
  </defs>
  <g transform="matrix(1 0 0 1 -1086 -179 )">
    <path d="M 0 31  L 0 4  C 0 1.75999999999999  0.959999999999995 0  2.18181818181818 0  L 26.0559440559441 0  L 237.818181818182 0  C 239.04 0  240 1.75999999999999  240 4  L 240 31  C 240 33.24  239.04 35  237.818181818182 35  L 2.18181818181818 35  C 0.959999999999995 35  0 33.24  0 31  Z " fill-rule="nonzero" fill="#ffffff" stroke="none" transform="matrix(1 0 0 1 1086 179 )" />
    <path d="M 0 31  L 0 4  C 0 1.75999999999999  0.959999999999995 0  2.18181818181818 0  L 26.0559440559441 0  L 237.818181818182 0  C 239.04 0  240 1.75999999999999  240 4  L 240 31  C 240 33.24  239.04 35  237.818181818182 35  L 2.18181818181818 35  C 0.959999999999995 35  0 33.24  0 31  Z " stroke-width="2" stroke="#d9d9d9" fill="none" transform="matrix(1 0 0 1 1086 179 )" mask="url(#clip58)" />
  </g>
</svg>