<?xml version="1.0" encoding="utf-8"?>
<svg version="1.1" xmlns:xlink="http://www.w3.org/1999/xlink" width="635px" height="188px" xmlns="http://www.w3.org/2000/svg">
  <g transform="matrix(1 0 0 1 -1468 -240 )">
    <path d="M 1469 244  A 3 3 0 0 1 1472 241 L 2099 241  A 3 3 0 0 1 2102 244 L 2102 424  A 3 3 0 0 1 2099 427 L 1472 427  A 3 3 0 0 1 1469 424 L 1469 244  Z " fill-rule="nonzero" fill="#ff3399" stroke="none" fill-opacity="0.0980392156862745" />
    <path d="M 1468.5 244  A 3.5 3.5 0 0 1 1472 240.5 L 2099 240.5  A 3.5 3.5 0 0 1 2102.5 244 L 2102.5 424  A 3.5 3.5 0 0 1 2099 427.5 L 1472 427.5  A 3.5 3.5 0 0 1 1468.5 424 L 1468.5 244  Z " stroke-width="1" stroke-dasharray="9,4" stroke="#ff3399" fill="none" stroke-dashoffset="0.5" />
  </g>
</svg>