<?xml version="1.0" encoding="utf-8"?>
<svg version="1.1" xmlns:xlink="http://www.w3.org/1999/xlink" width="200px" height="100px" xmlns="http://www.w3.org/2000/svg">
  <g transform="matrix(1 0 0 1 -1027 -290 )">
    <path d="M 1028 294  A 3 3 0 0 1 1031 291 L 1223 291  A 3 3 0 0 1 1226 294 L 1226 386  A 3 3 0 0 1 1223 389 L 1031 389  A 3 3 0 0 1 1028 386 L 1028 294  Z " fill-rule="nonzero" fill="#ff3399" stroke="none" fill-opacity="0.0980392156862745" />
    <path d="M 1027.5 294  A 3.5 3.5 0 0 1 1031 290.5 L 1223 290.5  A 3.5 3.5 0 0 1 1226.5 294 L 1226.5 386  A 3.5 3.5 0 0 1 1223 389.5 L 1031 389.5  A 3.5 3.5 0 0 1 1027.5 386 L 1027.5 294  Z " stroke-width="1" stroke-dasharray="9,4" stroke="#ff3399" fill="none" stroke-dashoffset="0.5" />
  </g>
</svg>