<?xml version="1.0" encoding="utf-8"?>
<svg version="1.1" xmlns:xlink="http://www.w3.org/1999/xlink" width="1485px" height="184px" xmlns="http://www.w3.org/2000/svg">
  <g transform="matrix(1 0 0 1 -1451 -110 )">
    <path d="M 1452 114  A 3 3 0 0 1 1455 111 L 2932 111  A 3 3 0 0 1 2935 114 L 2935 290  A 3 3 0 0 1 2932 293 L 1455 293  A 3 3 0 0 1 1452 290 L 1452 114  Z " fill-rule="nonzero" fill="#ff3399" stroke="none" fill-opacity="0.0980392156862745" />
    <path d="M 1451.5 114  A 3.5 3.5 0 0 1 1455 110.5 L 2932 110.5  A 3.5 3.5 0 0 1 2935.5 114 L 2935.5 290  A 3.5 3.5 0 0 1 2932 293.5 L 1455 293.5  A 3.5 3.5 0 0 1 1451.5 290 L 1451.5 114  Z " stroke-width="1" stroke-dasharray="9,4" stroke="#ff3399" fill="none" stroke-dashoffset="0.5" />
  </g>
</svg>