<?xml version="1.0" encoding="utf-8"?>
<svg version="1.1" xmlns:xlink="http://www.w3.org/1999/xlink" width="1633px" height="256px" xmlns="http://www.w3.org/2000/svg">
  <g transform="matrix(1 0 0 1 -1451 -374 )">
    <path d="M 1452 378  A 3 3 0 0 1 1455 375 L 3080 375  A 3 3 0 0 1 3083 378 L 3083 626  A 3 3 0 0 1 3080 629 L 1455 629  A 3 3 0 0 1 1452 626 L 1452 378  Z " fill-rule="nonzero" fill="#ff3399" stroke="none" fill-opacity="0.0980392156862745" />
    <path d="M 1451.5 378  A 3.5 3.5 0 0 1 1455 374.5 L 3080 374.5  A 3.5 3.5 0 0 1 3083.5 378 L 3083.5 626  A 3.5 3.5 0 0 1 3080 629.5 L 1455 629.5  A 3.5 3.5 0 0 1 1451.5 626 L 1451.5 378  Z " stroke-width="1" stroke-dasharray="9,4" stroke="#ff3399" fill="none" stroke-dashoffset="0.5" />
  </g>
</svg>