<?xml version="1.0" encoding="utf-8"?>
<svg version="1.1" xmlns:xlink="http://www.w3.org/1999/xlink" width="104px" height="104px" xmlns="http://www.w3.org/2000/svg">
  <g transform="matrix(1 0 0 1 -708 -670 )">
    <path d="M 709 674  A 3 3 0 0 1 712 671 L 808 671  A 3 3 0 0 1 811 674 L 811 770  A 3 3 0 0 1 808 773 L 712 773  A 3 3 0 0 1 709 770 L 709 674  Z " fill-rule="nonzero" fill="#000000" stroke="none" fill-opacity="0.0196078431372549" />
    <path d="M 708.5 674  A 3.5 3.5 0 0 1 712 670.5 L 808 670.5  A 3.5 3.5 0 0 1 811.5 674 L 811.5 770  A 3.5 3.5 0 0 1 808 773.5 L 712 773.5  A 3.5 3.5 0 0 1 708.5 770 L 708.5 674  Z " stroke-width="1" stroke-dasharray="9,4" stroke="#d9d9d9" fill="none" stroke-dashoffset="0.5" />
  </g>
</svg>