<?xml version="1.0" encoding="utf-8"?>
<svg version="1.1" xmlns:xlink="http://www.w3.org/1999/xlink" width="50px" height="50px" xmlns="http://www.w3.org/2000/svg">
  <g transform="matrix(1 0 0 1 -407 -2305 )">
    <path d="M 9.09090909090909 36.3636363636364  L 13.6363636363636 36.3636363636364  L 13.6363636363636 40.9090909090909  L 9.09090909090909 40.9090909090909  L 9.09090909090909 36.3636363636364  Z M 9.09090909090909 9.09090909090909  L 13.6363636363636 9.09090909090909  L 13.6363636363636 13.6363636363636  L 9.09090909090909 13.6363636363636  L 9.09090909090909 9.09090909090909  Z M 36.3636363636364 9.09090909090909  L 40.9090909090909 9.09090909090909  L 40.9090909090909 13.6363636363636  L 36.3636363636364 13.6363636363636  L 36.3636363636364 9.09090909090909  Z M 5 31  L 5 45  L 19 45  L 19 31  L 5 31  Z M 5 5  L 5 19  L 19 19  L 19 5  L 5 5  Z M 31 5  L 31 19  L 45 19  L 45 5  L 31 5  Z M 0 27  L 23 27  L 23 50  L 0 50  L 0 27  Z M 36.3636363636364 45.4545454545455  L 40.9090909090909 45.4545454545455  L 40.9090909090909 50  L 36.3636363636364 50  L 36.3636363636364 45.4545454545455  Z M 45.4545454545455 45.4545454545455  L 50 45.4545454545455  L 50 50  L 45.4545454545455 50  L 45.4545454545455 45.4545454545455  Z M 45.4545454545455 27.2727272727273  L 50 27.2727272727273  L 50 41  L 36.3636363636364 41  L 36.3636363636364 36.3636363636364  L 31 36.3636363636364  L 31 50  L 27 50  L 27 27  L 40.9090909090909 27  L 40.9090909090909 31.8181818181818  L 45.4545454545455 31.8181818181818  L 45.4545454545455 27.2727272727273  Z M 0 0  L 23 0  L 23 23  L 0 23  L 0 0  Z M 27 0  L 50 0  L 50 23  L 27 23  L 27 0  Z " fill-rule="nonzero" fill="#7f7f7f" stroke="none" transform="matrix(1 0 0 1 407 2305 )" />
  </g>
</svg>