<?xml version="1.0" encoding="utf-8"?>
<svg version="1.1" xmlns:xlink="http://www.w3.org/1999/xlink" width="32px" height="32px" xmlns="http://www.w3.org/2000/svg">
  <g transform="matrix(1 0 0 1 -425 -2099 )">
    <path d="M 426 2103  A 3 3 0 0 1 429 2100 L 453 2100  A 3 3 0 0 1 456 2103 L 456 2127  A 3 3 0 0 1 453 2130 L 429 2130  A 3 3 0 0 1 426 2127 L 426 2103  Z " fill-rule="nonzero" fill="#f6f6f6" stroke="none" />
    <path d="M 425.5 2103  A 3.5 3.5 0 0 1 429 2099.5 L 453 2099.5  A 3.5 3.5 0 0 1 456.5 2103 L 456.5 2127  A 3.5 3.5 0 0 1 453 2130.5 L 429 2130.5  A 3.5 3.5 0 0 1 425.5 2127 L 425.5 2103  Z " stroke-width="1" stroke="#000000" fill="none" stroke-opacity="0.0470588235294118" />
  </g>
</svg>