<?xml version="1.0" encoding="utf-8"?>
<svg version="1.1" xmlns:xlink="http://www.w3.org/1999/xlink" width="1739px" height="184px" xmlns="http://www.w3.org/2000/svg">
  <g transform="matrix(1 0 0 1 -1465 -136 )">
    <path d="M 1466 140  A 3 3 0 0 1 1469 137 L 3200 137  A 3 3 0 0 1 3203 140 L 3203 316  A 3 3 0 0 1 3200 319 L 1469 319  A 3 3 0 0 1 1466 316 L 1466 140  Z " fill-rule="nonzero" fill="#ff3399" stroke="none" fill-opacity="0.0980392156862745" />
    <path d="M 1465.5 140  A 3.5 3.5 0 0 1 1469 136.5 L 3200 136.5  A 3.5 3.5 0 0 1 3203.5 140 L 3203.5 316  A 3.5 3.5 0 0 1 3200 319.5 L 1469 319.5  A 3.5 3.5 0 0 1 1465.5 316 L 1465.5 140  Z " stroke-width="1" stroke-dasharray="9,4" stroke="#ff3399" fill="none" stroke-dashoffset="0.5" />
  </g>
</svg>