<?xml version="1.0" encoding="utf-8"?>
<svg version="1.1" xmlns:xlink="http://www.w3.org/1999/xlink" width="1524px" height="188px" xmlns="http://www.w3.org/2000/svg">
  <g transform="matrix(1 0 0 1 -1465 -400 )">
    <path d="M 1466 404  A 3 3 0 0 1 1469 401 L 2985 401  A 3 3 0 0 1 2988 404 L 2988 584  A 3 3 0 0 1 2985 587 L 1469 587  A 3 3 0 0 1 1466 584 L 1466 404  Z " fill-rule="nonzero" fill="#ff3399" stroke="none" fill-opacity="0.0980392156862745" />
    <path d="M 1465.5 404  A 3.5 3.5 0 0 1 1469 400.5 L 2985 400.5  A 3.5 3.5 0 0 1 2988.5 404 L 2988.5 584  A 3.5 3.5 0 0 1 2985 587.5 L 1469 587.5  A 3.5 3.5 0 0 1 1465.5 584 L 1465.5 404  Z " stroke-width="1" stroke-dasharray="9,4" stroke="#ff3399" fill="none" stroke-dashoffset="0.5" />
  </g>
</svg>